<svg viewBox="0 0 820 500" xmlns="http://www.w3.org/2000/svg" font-family="'Segoe UI', Arial, sans-serif">
  <defs>
    <linearGradient id="bg2" x1="0%" y1="0%" x2="100%" y2="100%">
      <stop offset="0%" style="stop-color:#0f1923"/>
      <stop offset="100%" style="stop-color:#1a2535"/>
    </linearGradient>
  </defs>

  <rect width="820" height="500" fill="url(#bg2)" rx="12"/>

  <!-- Title -->
  <text x="410" y="32" text-anchor="middle" fill="#e2e8f0" font-size="15" font-weight="700" letter-spacing="1">ARQUITETURA EM CAMADAS — microserviceRegisterAthlete</text>
  <text x="410" y="50" text-anchor="middle" fill="#64b5f6" font-size="11">Java 21 · Spring Boot 3 · MongoDB Atlas · JWT · TrainDay Platform</text>
  <line x1="40" y1="58" x2="780" y2="58" stroke="#2a3f5f" stroke-width="1"/>

  <!-- ─── Column headers ─── -->
  <text x="120" y="76" text-anchor="middle" fill="#94a3b8" font-size="10" font-weight="600">CLIENTE / EXTERNO</text>
  <text x="290" y="76" text-anchor="middle" fill="#94a3b8" font-size="10" font-weight="600">ENTRADA (Adapters In)</text>
  <text x="460" y="76" text-anchor="middle" fill="#94a3b8" font-size="10" font-weight="600">APLICAÇÃO / DOMÍNIO</text>
  <text x="620" y="76" text-anchor="middle" fill="#94a3b8" font-size="10" font-weight="600">SAÍDA (Adapters Out)</text>
  <text x="760" y="76" text-anchor="middle" fill="#94a3b8" font-size="10" font-weight="600">INFRAESTRUTURA</text>

  <!-- vertical dividers -->
  <line x1="195" y1="62" x2="195" y2="460" stroke="#2a3f5f" stroke-width="1" stroke-dasharray="4,3"/>
  <line x1="365" y1="62" x2="365" y2="460" stroke="#2a3f5f" stroke-width="1" stroke-dasharray="4,3"/>
  <line x1="535" y1="62" x2="535" y2="460" stroke="#2a3f5f" stroke-width="1" stroke-dasharray="4,3"/>
  <line x1="695" y1="62" x2="695" y2="460" stroke="#2a3f5f" stroke-width="1" stroke-dasharray="4,3"/>

  <!-- ─── ROW 1: AUTH ─── -->
  <text x="410" y="98" text-anchor="middle" fill="#64748b" font-size="9" font-weight="600" letter-spacing="2">── AUTENTICAÇÃO ──</text>

  <!-- Client -->
  <rect x="44" y="104" width="152" height="36" rx="6" fill="#1e1b4b" stroke="#6366f1" stroke-width="1.2"/>
  <text x="120" y="119" text-anchor="middle" fill="#818cf8" font-size="9" font-weight="700">HTTP Client / Swagger</text>
  <text x="120" y="133" text-anchor="middle" fill="#a5b4fc" font-size="8">POST /auth/register · /auth/login</text>

  <!-- Arrow -->
  <line x1="196" y1="122" x2="212" y2="122" stroke="#6366f1" stroke-width="1.5" marker-end="url(#arr1)"/>

  <!-- Auth Controller -->
  <rect x="214" y="104" width="150" height="36" rx="6" fill="#1e2a1e" stroke="#34d399" stroke-width="1.2"/>
  <text x="289" y="119" text-anchor="middle" fill="#34d399" font-size="9" font-weight="700">AuthController</text>
  <text x="289" y="133" text-anchor="middle" fill="#86efac" font-size="8">@RestController · @PostMapping</text>

  <!-- Arrow -->
  <line x1="364" y1="122" x2="380" y2="122" stroke="#34d399" stroke-width="1.5" marker-end="url(#arr2)"/>

  <!-- AuthService -->
  <rect x="382" y="104" width="152" height="36" rx="6" fill="#1e3a5f" stroke="#60a5fa" stroke-width="2"/>
  <text x="458" y="119" text-anchor="middle" fill="#93c5fd" font-size="9" font-weight="700">AuthService</text>
  <text x="458" y="133" text-anchor="middle" fill="#60a5fa" font-size="8">BCrypt · JWT · UserDetailsService</text>

  <!-- Arrow -->
  <line x1="534" y1="122" x2="550" y2="122" stroke="#60a5fa" stroke-width="1.5" marker-end="url(#arr3)"/>

  <!-- JWT Adapter -->
  <rect x="552" y="104" width="142" height="36" rx="6" fill="#1c2f1a" stroke="#4ade80" stroke-width="1.2"/>
  <text x="623" y="119" text-anchor="middle" fill="#4ade80" font-size="9" font-weight="700">JwtTokenProviderImpl</text>
  <text x="623" y="133" text-anchor="middle" fill="#86efac" font-size="8">generateToken · validateToken</text>

  <!-- Arrow -->
  <line x1="694" y1="122" x2="710" y2="122" stroke="#4ade80" stroke-width="1.5" marker-end="url(#arr4)"/>

  <!-- jjwt -->
  <rect x="712" y="104" width="90" height="36" rx="6" fill="#111827" stroke="#f59e0b" stroke-width="1.2"/>
  <text x="757" y="119" text-anchor="middle" fill="#fbbf24" font-size="9" font-weight="700">jjwt 0.12</text>
  <text x="757" y="133" text-anchor="middle" fill="#fde68a" font-size="8">io.jsonwebtoken</text>

  <!-- ─── ROW 2: SECURITY FILTER ─── -->
  <text x="410" y="160" text-anchor="middle" fill="#64748b" font-size="9" font-weight="600" letter-spacing="2">── SEGURANÇA ──</text>

  <!-- JwtAuthFilter -->
  <rect x="214" y="166" width="150" height="36" rx="6" fill="#1e2a1e" stroke="#34d399" stroke-width="1.2"/>
  <text x="289" y="181" text-anchor="middle" fill="#34d399" font-size="9" font-weight="700">JwtAuthFilter</text>
  <text x="289" y="195" text-anchor="middle" fill="#86efac" font-size="8">OncePerRequestFilter</text>

  <!-- SecurityConfig -->
  <rect x="382" y="166" width="152" height="36" rx="6" fill="#1e3a5f" stroke="#60a5fa" stroke-width="1.2"/>
  <text x="458" y="181" text-anchor="middle" fill="#93c5fd" font-size="9" font-weight="700">SecurityConfig</text>
  <text x="458" y="195" text-anchor="middle" fill="#60a5fa" font-size="8">@EnableWebSecurity · CORS · CSRF</text>

  <!-- ─── ROW 3: ATHLETE CRUD ─── -->
  <text x="410" y="224" text-anchor="middle" fill="#64748b" font-size="9" font-weight="600" letter-spacing="2">── CADASTRO DE ATLETA ──</text>

  <!-- Client -->
  <rect x="44" y="230" width="152" height="36" rx="6" fill="#1e1b4b" stroke="#6366f1" stroke-width="1.2"/>
  <text x="120" y="245" text-anchor="middle" fill="#818cf8" font-size="9" font-weight="700">Swagger / Bearer Token</text>
  <text x="120" y="259" text-anchor="middle" fill="#a5b4fc" font-size="8">GET /athlete/{id} · PUT · DELETE</text>

  <!-- Arrow -->
  <line x1="196" y1="248" x2="212" y2="248" stroke="#6366f1" stroke-width="1.5" marker-end="url(#arr1)"/>

  <!-- AthleteController -->
  <rect x="214" y="230" width="150" height="36" rx="6" fill="#1e2a1e" stroke="#34d399" stroke-width="1.2"/>
  <text x="289" y="245" text-anchor="middle" fill="#34d399" font-size="9" font-weight="700">AthleteController</text>
  <text x="289" y="259" text-anchor="middle" fill="#86efac" font-size="8">@GetMapping · @PutMapping · @DeleteMapping</text>

  <!-- Arrow -->
  <line x1="364" y1="248" x2="380" y2="248" stroke="#34d399" stroke-width="1.5" marker-end="url(#arr2)"/>

  <!-- AthleteService -->
  <rect x="382" y="230" width="152" height="36" rx="6" fill="#1e3a5f" stroke="#60a5fa" stroke-width="2"/>
  <text x="458" y="245" text-anchor="middle" fill="#93c5fd" font-size="9" font-weight="700">AthleteService</text>
  <text x="458" y="259" text-anchor="middle" fill="#60a5fa" font-size="8">CRUD · validação · Lombok</text>

  <!-- Arrow -->
  <line x1="534" y1="248" x2="550" y2="248" stroke="#60a5fa" stroke-width="1.5" marker-end="url(#arr3)"/>

  <!-- MongoRepo -->
  <rect x="552" y="230" width="142" height="36" rx="6" fill="#1c2f1a" stroke="#4ade80" stroke-width="1.2"/>
  <text x="623" y="245" text-anchor="middle" fill="#4ade80" font-size="9" font-weight="700">AthleteMongoRepository</text>
  <text x="623" y="259" text-anchor="middle" fill="#86efac" font-size="8">MongoRepository&lt;Athlete, String&gt;</text>

  <!-- Arrow -->
  <line x1="694" y1="248" x2="710" y2="248" stroke="#4ade80" stroke-width="1.5" marker-end="url(#arr4)"/>

  <!-- MongoDB Atlas -->
  <rect x="712" y="230" width="90" height="36" rx="6" fill="#111827" stroke="#16a34a" stroke-width="1.2"/>
  <text x="757" y="245" text-anchor="middle" fill="#16a34a" font-size="9" font-weight="700">MongoDB Atlas</text>
  <text x="757" y="259" text-anchor="middle" fill="#4ade80" font-size="8">Cloud · TLS</text>

  <!-- ─── ROW 4: INTEGRATION ─── -->
  <text x="410" y="288" text-anchor="middle" fill="#64748b" font-size="9" font-weight="600" letter-spacing="2">── INTEGRAÇÃO TRAINDAY ──</text>

  <!-- TrainDay services -->
  <rect x="44" y="294" width="152" height="50" rx="6" fill="#1a1500" stroke="#f59e0b" stroke-width="1.2"/>
  <text x="120" y="312" text-anchor="middle" fill="#fbbf24" font-size="9" font-weight="700">🏋️ RegisterTrain</text>
  <text x="120" y="325" text-anchor="middle" fill="#fde68a" font-size="8">:8081 · Spring Security</text>
  <text x="120" y="337" text-anchor="middle" fill="#fde68a" font-size="8">JWT compartilhado</text>

  <!-- HealthyHistory -->
  <rect x="214" y="294" width="150" height="50" rx="6" fill="#1a0a1e" stroke="#c084fc" stroke-width="1.5"/>
  <text x="289" y="312" text-anchor="middle" fill="#c084fc" font-size="9" font-weight="700">🩺 Healthy History</text>
  <text x="289" y="325" text-anchor="middle" fill="#e9d5ff" font-size="8">:8082 · Bioimpedance</text>
  <text x="289" y="337" text-anchor="middle" fill="#e9d5ff" font-size="8">AthleteSnapshot · OpenFeign</text>

  <!-- Arrow integration -->
  <line x1="196" y1="319" x2="212" y2="319" stroke="#f59e0b" stroke-width="1.5" stroke-dasharray="4,2" marker-end="url(#arr5)"/>
  <line x1="364" y1="319" x2="410" y2="319" stroke="#c084fc" stroke-width="1.5" stroke-dasharray="4,2" marker-end="url(#arr6)"/>

  <!-- JWT shared -->
  <rect x="382" y="294" width="152" height="50" rx="6" fill="#1e3a5f" stroke="#60a5fa" stroke-width="1.2"/>
  <text x="458" y="312" text-anchor="middle" fill="#93c5fd" font-size="9" font-weight="700">JWT Compartilhado</text>
  <text x="458" y="325" text-anchor="middle" fill="#60a5fa" font-size="8">Bearer Token cross-service</text>
  <text x="458" y="337" text-anchor="middle" fill="#60a5fa" font-size="8">Mesmo secret · Mesmo issuer</text>

  <!-- ─── ROW 5: OBSERVABILITY ─── -->
  <text x="410" y="364" text-anchor="middle" fill="#64748b" font-size="9" font-weight="600" letter-spacing="2">── OBSERVABILIDADE ──</text>

  <rect x="44" y="370" width="152" height="36" rx="6" fill="#1a1000" stroke="#fb923c" stroke-width="1.2"/>
  <text x="120" y="385" text-anchor="middle" fill="#fb923c" font-size="9" font-weight="700">Prometheus · Grafana</text>
  <text x="120" y="399" text-anchor="middle" fill="#fdba74" font-size="8">Métricas · Dashboards</text>

  <rect x="214" y="370" width="150" height="36" rx="6" fill="#1a1000" stroke="#fb923c" stroke-width="1.2"/>
  <text x="289" y="385" text-anchor="middle" fill="#fb923c" font-size="9" font-weight="700">Spring Actuator</text>
  <text x="289" y="399" text-anchor="middle" fill="#fdba74" font-size="8">/actuator/health · /metrics</text>

  <rect x="382" y="370" width="152" height="36" rx="6" fill="#1a1000" stroke="#fb923c" stroke-width="1.2"/>
  <text x="458" y="385" text-anchor="middle" fill="#fb923c" font-size="9" font-weight="700">Micrometer</text>
  <text x="458" y="399" text-anchor="middle" fill="#fdba74" font-size="8">MeterRegistry · Tags</text>

  <rect x="552" y="370" width="142" height="36" rx="6" fill="#1a1000" stroke="#fb923c" stroke-width="1.2"/>
  <text x="623" y="385" text-anchor="middle" fill="#fb923c" font-size="9" font-weight="700">SonarQube + JaCoCo</text>
  <text x="623" y="399" text-anchor="middle" fill="#fdba74" font-size="8">Cobertura · Code Quality</text>

  <rect x="712" y="370" width="90" height="36" rx="6" fill="#1a1000" stroke="#fb923c" stroke-width="1.2"/>
  <text x="757" y="385" text-anchor="middle" fill="#fb923c" font-size="9" font-weight="700">GitHub Actions</text>
  <text x="757" y="399" text-anchor="middle" fill="#fdba74" font-size="8">CI/CD Pipeline</text>

  <!-- ─── Legend ─── -->
  <rect x="44" y="424" width="734" height="60" rx="6" fill="#0d1520" stroke="#2a3f5f" stroke-width="1"/>
  <text x="411" y="440" text-anchor="middle" fill="#94a3b8" font-size="9" font-weight="600">LEGENDA</text>

  <rect x="60" y="448" width="12" height="8" rx="2" fill="#1e3a5f" stroke="#60a5fa" stroke-width="1.5"/>
  <text x="78" y="457" fill="#60a5fa" font-size="8">Domínio / Core</text>

  <rect x="150" y="448" width="12" height="8" rx="2" fill="#1e2a1e" stroke="#34d399" stroke-width="1.5"/>
  <text x="168" y="457" fill="#34d399" font-size="8">Adapter Entrada</text>

  <rect x="260" y="448" width="12" height="8" rx="2" fill="#1c2f1a" stroke="#4ade80" stroke-width="1.5"/>
  <text x="278" y="457" fill="#4ade80" font-size="8">Adapter Saída</text>

  <rect x="360" y="448" width="12" height="8" rx="2" fill="#111827" stroke="#f59e0b" stroke-width="1.5"/>
  <text x="378" y="457" fill="#f59e0b" font-size="8">Infra / Externo</text>

  <rect x="460" y="448" width="12" height="8" rx="2" fill="#1a0a1e" stroke="#c084fc" stroke-width="1.5"/>
  <text x="478" y="457" fill="#c084fc" font-size="8">Healthy History (novo)</text>

  <rect x="590" y="448" width="12" height="8" rx="2" fill="#1e1b4b" stroke="#6366f1" stroke-width="1.5"/>
  <text x="608" y="457" fill="#6366f1" font-size="8">Cliente HTTP</text>

  <rect x="670" y="448" width="12" height="8" rx="2" fill="#1a1000" stroke="#fb923c" stroke-width="1.5"/>
  <text x="688" y="457" fill="#fb923c" font-size="8">Observabilidade</text>

  <!-- Arrow markers -->
  <defs>
    <marker id="arr1" markerWidth="7" markerHeight="7" refX="5" refY="3" orient="auto">
      <path d="M0,0 L0,6 L7,3 z" fill="#6366f1"/>
    </marker>
    <marker id="arr2" markerWidth="7" markerHeight="7" refX="5" refY="3" orient="auto">
      <path d="M0,0 L0,6 L7,3 z" fill="#34d399"/>
    </marker>
    <marker id="arr3" markerWidth="7" markerHeight="7" refX="5" refY="3" orient="auto">
      <path d="M0,0 L0,6 L7,3 z" fill="#60a5fa"/>
    </marker>
    <marker id="arr4" markerWidth="7" markerHeight="7" refX="5" refY="3" orient="auto">
      <path d="M0,0 L0,6 L7,3 z" fill="#4ade80"/>
    </marker>
    <marker id="arr5" markerWidth="7" markerHeight="7" refX="5" refY="3" orient="auto">
      <path d="M0,0 L0,6 L7,3 z" fill="#f59e0b"/>
    </marker>
    <marker id="arr6" markerWidth="7" markerHeight="7" refX="5" refY="3" orient="auto">
      <path d="M0,0 L0,6 L7,3 z" fill="#c084fc"/>
    </marker>
  </defs>
</svg>
